<mxfile host="app.diagrams.net" agent="Mozilla/5.0 (Windows NT 10.0; Win64; x64) AppleWebKit/537.36 (KHTML, like Gecko) Chrome/127.0.0.0 Safari/537.36 Edg/127.0.0.0" version="24.7.6">
  <diagram id="R2lEEEUBdFMjLlhIrx00" name="Page-1">
    <mxGraphModel dx="1042" dy="614" grid="1" gridSize="10" guides="1" tooltips="1" connect="1" arrows="1" fold="1" page="1" pageScale="1" pageWidth="850" pageHeight="1100" math="0" shadow="0" extFonts="Permanent Marker^https://fonts.googleapis.com/css?family=Permanent+Marker">
      <root>
        <mxCell id="0" />
        <mxCell id="1" parent="0" />
        <mxCell id="8qpjq_qJzxtZLCjxpEvZ-23" style="edgeStyle=orthogonalEdgeStyle;rounded=0;orthogonalLoop=1;jettySize=auto;html=1;entryX=0;entryY=0.5;entryDx=0;entryDy=0;fillColor=#f8cecc;strokeColor=#b85450;" edge="1" parent="1" source="8qpjq_qJzxtZLCjxpEvZ-11" target="8qpjq_qJzxtZLCjxpEvZ-12">
          <mxGeometry relative="1" as="geometry" />
        </mxCell>
        <mxCell id="8qpjq_qJzxtZLCjxpEvZ-11" value="Entity" style="rounded=1;arcSize=10;whiteSpace=wrap;html=1;align=center;fillColor=#dae8fc;strokeColor=#6c8ebf;" vertex="1" parent="1">
          <mxGeometry x="70" y="150" width="90" height="50" as="geometry" />
        </mxCell>
        <mxCell id="8qpjq_qJzxtZLCjxpEvZ-12" value="MakeOrder" style="shape=rhombus;double=1;perimeter=rhombusPerimeter;whiteSpace=wrap;html=1;align=center;fillColor=#ffe6cc;strokeColor=#d79b00;" vertex="1" parent="1">
          <mxGeometry x="260" y="145" width="120" height="60" as="geometry" />
        </mxCell>
        <mxCell id="8qpjq_qJzxtZLCjxpEvZ-13" value="userId" style="ellipse;whiteSpace=wrap;html=1;align=center;fontStyle=4;fillColor=#f8cecc;strokeColor=#b85450;" vertex="1" parent="1">
          <mxGeometry x="110" y="60" width="80" height="30" as="geometry" />
        </mxCell>
        <mxCell id="8qpjq_qJzxtZLCjxpEvZ-14" value="pass" style="ellipse;whiteSpace=wrap;html=1;align=center;fillColor=#f8cecc;strokeColor=#b85450;" vertex="1" parent="1">
          <mxGeometry x="10" y="260" width="70" height="30" as="geometry" />
        </mxCell>
        <mxCell id="8qpjq_qJzxtZLCjxpEvZ-15" value="name" style="ellipse;whiteSpace=wrap;html=1;fillColor=#f8cecc;strokeColor=#b85450;" vertex="1" parent="1">
          <mxGeometry x="110" y="260" width="70" height="30" as="geometry" />
        </mxCell>
        <mxCell id="8qpjq_qJzxtZLCjxpEvZ-16" value="email" style="ellipse;whiteSpace=wrap;html=1;fillColor=#f8cecc;strokeColor=#b85450;" vertex="1" parent="1">
          <mxGeometry y="80" width="70" height="30" as="geometry" />
        </mxCell>
        <mxCell id="8qpjq_qJzxtZLCjxpEvZ-17" value="num" style="ellipse;whiteSpace=wrap;html=1;fillColor=#f8cecc;strokeColor=#b85450;" vertex="1" parent="1">
          <mxGeometry x="200" y="90" width="70" height="30" as="geometry" />
        </mxCell>
        <mxCell id="8qpjq_qJzxtZLCjxpEvZ-18" value="" style="endArrow=none;html=1;rounded=0;exitX=1;exitY=0;exitDx=0;exitDy=0;entryX=0.286;entryY=1;entryDx=0;entryDy=0;entryPerimeter=0;fillColor=#f8cecc;strokeColor=#b85450;" edge="1" parent="1" source="8qpjq_qJzxtZLCjxpEvZ-11" target="8qpjq_qJzxtZLCjxpEvZ-17">
          <mxGeometry relative="1" as="geometry">
            <mxPoint x="340" y="120" as="sourcePoint" />
            <mxPoint x="500" y="120" as="targetPoint" />
          </mxGeometry>
        </mxCell>
        <mxCell id="8qpjq_qJzxtZLCjxpEvZ-19" value="" style="endArrow=none;html=1;rounded=0;exitX=0.5;exitY=0;exitDx=0;exitDy=0;entryX=0.5;entryY=1;entryDx=0;entryDy=0;fillColor=#f8cecc;strokeColor=#b85450;" edge="1" parent="1" source="8qpjq_qJzxtZLCjxpEvZ-11" target="8qpjq_qJzxtZLCjxpEvZ-13">
          <mxGeometry relative="1" as="geometry">
            <mxPoint x="340" y="120" as="sourcePoint" />
            <mxPoint x="500" y="120" as="targetPoint" />
          </mxGeometry>
        </mxCell>
        <mxCell id="8qpjq_qJzxtZLCjxpEvZ-20" value="" style="endArrow=none;html=1;rounded=0;exitX=0;exitY=0;exitDx=0;exitDy=0;entryX=0.731;entryY=0.98;entryDx=0;entryDy=0;entryPerimeter=0;fillColor=#f8cecc;strokeColor=#b85450;" edge="1" parent="1" source="8qpjq_qJzxtZLCjxpEvZ-11" target="8qpjq_qJzxtZLCjxpEvZ-16">
          <mxGeometry relative="1" as="geometry">
            <mxPoint x="340" y="120" as="sourcePoint" />
            <mxPoint x="500" y="120" as="targetPoint" />
          </mxGeometry>
        </mxCell>
        <mxCell id="8qpjq_qJzxtZLCjxpEvZ-21" value="" style="endArrow=none;html=1;rounded=0;exitX=0.663;exitY=-0.087;exitDx=0;exitDy=0;exitPerimeter=0;fillColor=#f8cecc;strokeColor=#b85450;" edge="1" parent="1" source="8qpjq_qJzxtZLCjxpEvZ-14" target="8qpjq_qJzxtZLCjxpEvZ-11">
          <mxGeometry relative="1" as="geometry">
            <mxPoint x="340" y="120" as="sourcePoint" />
            <mxPoint x="500" y="120" as="targetPoint" />
          </mxGeometry>
        </mxCell>
        <mxCell id="8qpjq_qJzxtZLCjxpEvZ-22" value="" style="endArrow=none;html=1;rounded=0;exitX=0.286;exitY=0;exitDx=0;exitDy=0;exitPerimeter=0;fillColor=#f8cecc;strokeColor=#b85450;" edge="1" parent="1" source="8qpjq_qJzxtZLCjxpEvZ-15" target="8qpjq_qJzxtZLCjxpEvZ-11">
          <mxGeometry relative="1" as="geometry">
            <mxPoint x="340" y="120" as="sourcePoint" />
            <mxPoint x="500" y="120" as="targetPoint" />
          </mxGeometry>
        </mxCell>
        <mxCell id="8qpjq_qJzxtZLCjxpEvZ-26" style="edgeStyle=orthogonalEdgeStyle;rounded=0;orthogonalLoop=1;jettySize=auto;html=1;entryX=1;entryY=0.5;entryDx=0;entryDy=0;fillColor=#f8cecc;strokeColor=#b85450;" edge="1" parent="1" source="8qpjq_qJzxtZLCjxpEvZ-24" target="8qpjq_qJzxtZLCjxpEvZ-12">
          <mxGeometry relative="1" as="geometry" />
        </mxCell>
        <mxCell id="8qpjq_qJzxtZLCjxpEvZ-24" value="order" style="rounded=1;arcSize=10;whiteSpace=wrap;html=1;align=center;fillColor=#dae8fc;strokeColor=#6c8ebf;" vertex="1" parent="1">
          <mxGeometry x="550" y="155" width="100" height="40" as="geometry" />
        </mxCell>
        <mxCell id="8qpjq_qJzxtZLCjxpEvZ-27" value="pass" style="ellipse;whiteSpace=wrap;html=1;fillColor=#f8cecc;strokeColor=#b85450;" vertex="1" parent="1">
          <mxGeometry x="200" y="740" width="70" height="30" as="geometry" />
        </mxCell>
        <mxCell id="8qpjq_qJzxtZLCjxpEvZ-28" value="name" style="ellipse;whiteSpace=wrap;html=1;fillColor=#f8cecc;strokeColor=#b85450;" vertex="1" parent="1">
          <mxGeometry x="722.5" y="440" width="70" height="30" as="geometry" />
        </mxCell>
        <mxCell id="8qpjq_qJzxtZLCjxpEvZ-29" value="productId" style="ellipse;whiteSpace=wrap;html=1;fillColor=#f8cecc;strokeColor=#b85450;" vertex="1" parent="1">
          <mxGeometry x="700" y="70" width="70" height="30" as="geometry" />
        </mxCell>
        <mxCell id="8qpjq_qJzxtZLCjxpEvZ-30" value="quntity" style="ellipse;whiteSpace=wrap;html=1;fillColor=#f8cecc;strokeColor=#b85450;" vertex="1" parent="1">
          <mxGeometry x="570" y="40" width="70" height="30" as="geometry" />
        </mxCell>
        <mxCell id="8qpjq_qJzxtZLCjxpEvZ-31" value="price" style="ellipse;whiteSpace=wrap;html=1;fillColor=#f8cecc;strokeColor=#b85450;" vertex="1" parent="1">
          <mxGeometry x="450" y="70" width="70" height="30" as="geometry" />
        </mxCell>
        <mxCell id="8qpjq_qJzxtZLCjxpEvZ-32" value="userid" style="ellipse;whiteSpace=wrap;html=1;fillColor=#f8cecc;strokeColor=#b85450;" vertex="1" parent="1">
          <mxGeometry x="450" y="260" width="70" height="30" as="geometry" />
        </mxCell>
        <mxCell id="8qpjq_qJzxtZLCjxpEvZ-33" value="orderId" style="ellipse;whiteSpace=wrap;html=1;align=center;fontStyle=4;fillColor=#f8cecc;strokeColor=#b85450;" vertex="1" parent="1">
          <mxGeometry x="720" y="140" width="75" height="30" as="geometry" />
        </mxCell>
        <mxCell id="8qpjq_qJzxtZLCjxpEvZ-34" value="" style="endArrow=none;html=1;rounded=0;entryX=0.714;entryY=0;entryDx=0;entryDy=0;entryPerimeter=0;exitX=0;exitY=1;exitDx=0;exitDy=0;fillColor=#f8cecc;strokeColor=#b85450;" edge="1" parent="1" source="8qpjq_qJzxtZLCjxpEvZ-24" target="8qpjq_qJzxtZLCjxpEvZ-32">
          <mxGeometry relative="1" as="geometry">
            <mxPoint x="340" y="220" as="sourcePoint" />
            <mxPoint x="500" y="220" as="targetPoint" />
          </mxGeometry>
        </mxCell>
        <mxCell id="8qpjq_qJzxtZLCjxpEvZ-35" value="" style="endArrow=none;html=1;rounded=0;entryX=0.686;entryY=0.993;entryDx=0;entryDy=0;entryPerimeter=0;exitX=0;exitY=0.25;exitDx=0;exitDy=0;fillColor=#f8cecc;strokeColor=#b85450;" edge="1" parent="1" source="8qpjq_qJzxtZLCjxpEvZ-24" target="8qpjq_qJzxtZLCjxpEvZ-31">
          <mxGeometry relative="1" as="geometry">
            <mxPoint x="340" y="220" as="sourcePoint" />
            <mxPoint x="500" y="220" as="targetPoint" />
          </mxGeometry>
        </mxCell>
        <mxCell id="8qpjq_qJzxtZLCjxpEvZ-36" value="" style="endArrow=none;html=1;rounded=0;entryX=0.5;entryY=1;entryDx=0;entryDy=0;fillColor=#f8cecc;strokeColor=#b85450;" edge="1" parent="1" target="8qpjq_qJzxtZLCjxpEvZ-30">
          <mxGeometry relative="1" as="geometry">
            <mxPoint x="590" y="150" as="sourcePoint" />
            <mxPoint x="500" y="220" as="targetPoint" />
          </mxGeometry>
        </mxCell>
        <mxCell id="8qpjq_qJzxtZLCjxpEvZ-37" value="" style="endArrow=none;html=1;rounded=0;entryX=0;entryY=1;entryDx=0;entryDy=0;exitX=0.5;exitY=0;exitDx=0;exitDy=0;fillColor=#f8cecc;strokeColor=#b85450;" edge="1" parent="1" source="8qpjq_qJzxtZLCjxpEvZ-24" target="8qpjq_qJzxtZLCjxpEvZ-29">
          <mxGeometry relative="1" as="geometry">
            <mxPoint x="340" y="220" as="sourcePoint" />
            <mxPoint x="500" y="220" as="targetPoint" />
          </mxGeometry>
        </mxCell>
        <mxCell id="8qpjq_qJzxtZLCjxpEvZ-38" value="" style="endArrow=none;html=1;rounded=0;entryX=0.101;entryY=0.66;entryDx=0;entryDy=0;entryPerimeter=0;exitX=1;exitY=0.5;exitDx=0;exitDy=0;fillColor=#f8cecc;strokeColor=#b85450;" edge="1" parent="1" source="8qpjq_qJzxtZLCjxpEvZ-24" target="8qpjq_qJzxtZLCjxpEvZ-33">
          <mxGeometry relative="1" as="geometry">
            <mxPoint x="340" y="220" as="sourcePoint" />
            <mxPoint x="500" y="220" as="targetPoint" />
          </mxGeometry>
        </mxCell>
        <mxCell id="8qpjq_qJzxtZLCjxpEvZ-41" style="edgeStyle=orthogonalEdgeStyle;rounded=0;orthogonalLoop=1;jettySize=auto;html=1;fillColor=#f8cecc;strokeColor=#b85450;" edge="1" parent="1" source="8qpjq_qJzxtZLCjxpEvZ-39">
          <mxGeometry relative="1" as="geometry">
            <mxPoint x="600" y="200" as="targetPoint" />
          </mxGeometry>
        </mxCell>
        <mxCell id="8qpjq_qJzxtZLCjxpEvZ-43" style="edgeStyle=orthogonalEdgeStyle;rounded=0;orthogonalLoop=1;jettySize=auto;html=1;entryX=0.5;entryY=0;entryDx=0;entryDy=0;fillColor=#f8cecc;strokeColor=#b85450;" edge="1" parent="1" source="8qpjq_qJzxtZLCjxpEvZ-39" target="8qpjq_qJzxtZLCjxpEvZ-42">
          <mxGeometry relative="1" as="geometry" />
        </mxCell>
        <mxCell id="8qpjq_qJzxtZLCjxpEvZ-39" value="Has" style="shape=rhombus;perimeter=rhombusPerimeter;whiteSpace=wrap;html=1;align=center;fillColor=#ffe6cc;strokeColor=#d79b00;" vertex="1" parent="1">
          <mxGeometry x="540" y="330" width="120" height="60" as="geometry" />
        </mxCell>
        <mxCell id="8qpjq_qJzxtZLCjxpEvZ-47" style="edgeStyle=orthogonalEdgeStyle;rounded=0;orthogonalLoop=1;jettySize=auto;html=1;entryX=0.5;entryY=0;entryDx=0;entryDy=0;fillColor=#f8cecc;strokeColor=#b85450;" edge="1" parent="1" source="8qpjq_qJzxtZLCjxpEvZ-42" target="8qpjq_qJzxtZLCjxpEvZ-46">
          <mxGeometry relative="1" as="geometry" />
        </mxCell>
        <mxCell id="8qpjq_qJzxtZLCjxpEvZ-42" value="Product" style="rounded=1;arcSize=10;whiteSpace=wrap;html=1;align=center;fillColor=#dae8fc;strokeColor=#6c8ebf;" vertex="1" parent="1">
          <mxGeometry x="555" y="510" width="90" height="50" as="geometry" />
        </mxCell>
        <mxCell id="8qpjq_qJzxtZLCjxpEvZ-51" style="edgeStyle=orthogonalEdgeStyle;rounded=0;orthogonalLoop=1;jettySize=auto;html=1;entryX=1;entryY=0.5;entryDx=0;entryDy=0;fillColor=#f8cecc;strokeColor=#b85450;" edge="1" parent="1" source="8qpjq_qJzxtZLCjxpEvZ-44" target="8qpjq_qJzxtZLCjxpEvZ-45">
          <mxGeometry relative="1" as="geometry" />
        </mxCell>
        <mxCell id="8qpjq_qJzxtZLCjxpEvZ-52" style="edgeStyle=orthogonalEdgeStyle;rounded=0;orthogonalLoop=1;jettySize=auto;html=1;fillColor=#f8cecc;strokeColor=#b85450;" edge="1" parent="1" source="8qpjq_qJzxtZLCjxpEvZ-44">
          <mxGeometry relative="1" as="geometry">
            <mxPoint x="550" y="535" as="targetPoint" />
          </mxGeometry>
        </mxCell>
        <mxCell id="8qpjq_qJzxtZLCjxpEvZ-44" value="Has" style="shape=rhombus;perimeter=rhombusPerimeter;whiteSpace=wrap;html=1;align=center;fillColor=#ffe6cc;strokeColor=#d79b00;" vertex="1" parent="1">
          <mxGeometry x="320" y="505" width="120" height="60" as="geometry" />
        </mxCell>
        <mxCell id="8qpjq_qJzxtZLCjxpEvZ-56" style="edgeStyle=orthogonalEdgeStyle;rounded=0;orthogonalLoop=1;jettySize=auto;html=1;entryX=0.5;entryY=0;entryDx=0;entryDy=0;fillColor=#f8cecc;strokeColor=#b85450;" edge="1" parent="1" source="8qpjq_qJzxtZLCjxpEvZ-45" target="8qpjq_qJzxtZLCjxpEvZ-55">
          <mxGeometry relative="1" as="geometry" />
        </mxCell>
        <mxCell id="8qpjq_qJzxtZLCjxpEvZ-45" value="Category" style="rounded=1;arcSize=10;whiteSpace=wrap;html=1;align=center;fillColor=#dae8fc;strokeColor=#6c8ebf;" vertex="1" parent="1">
          <mxGeometry x="80" y="510" width="90" height="50" as="geometry" />
        </mxCell>
        <mxCell id="8qpjq_qJzxtZLCjxpEvZ-50" style="edgeStyle=orthogonalEdgeStyle;rounded=0;orthogonalLoop=1;jettySize=auto;html=1;entryX=0.5;entryY=0;entryDx=0;entryDy=0;fillColor=#f8cecc;strokeColor=#b85450;" edge="1" parent="1" source="8qpjq_qJzxtZLCjxpEvZ-46" target="8qpjq_qJzxtZLCjxpEvZ-48">
          <mxGeometry relative="1" as="geometry" />
        </mxCell>
        <mxCell id="8qpjq_qJzxtZLCjxpEvZ-46" value="Has" style="shape=rhombus;perimeter=rhombusPerimeter;whiteSpace=wrap;html=1;align=center;fillColor=#ffe6cc;strokeColor=#d79b00;" vertex="1" parent="1">
          <mxGeometry x="540" y="700" width="120" height="60" as="geometry" />
        </mxCell>
        <mxCell id="8qpjq_qJzxtZLCjxpEvZ-48" value="stock" style="rounded=1;arcSize=10;whiteSpace=wrap;html=1;align=center;fillColor=#dae8fc;strokeColor=#6c8ebf;" vertex="1" parent="1">
          <mxGeometry x="555" y="880" width="90" height="50" as="geometry" />
        </mxCell>
        <mxCell id="8qpjq_qJzxtZLCjxpEvZ-54" style="edgeStyle=orthogonalEdgeStyle;rounded=0;orthogonalLoop=1;jettySize=auto;html=1;fillColor=#f8cecc;strokeColor=#b85450;" edge="1" parent="1" source="8qpjq_qJzxtZLCjxpEvZ-53">
          <mxGeometry relative="1" as="geometry">
            <mxPoint x="550" y="905" as="targetPoint" />
          </mxGeometry>
        </mxCell>
        <mxCell id="8qpjq_qJzxtZLCjxpEvZ-59" style="edgeStyle=orthogonalEdgeStyle;rounded=0;orthogonalLoop=1;jettySize=auto;html=1;fillColor=#f8cecc;strokeColor=#b85450;" edge="1" parent="1" source="8qpjq_qJzxtZLCjxpEvZ-53">
          <mxGeometry relative="1" as="geometry">
            <mxPoint x="170" y="905" as="targetPoint" />
          </mxGeometry>
        </mxCell>
        <mxCell id="8qpjq_qJzxtZLCjxpEvZ-53" value="manage" style="shape=rhombus;perimeter=rhombusPerimeter;whiteSpace=wrap;html=1;align=center;fillColor=#ffe6cc;strokeColor=#d79b00;" vertex="1" parent="1">
          <mxGeometry x="310" y="875" width="120" height="60" as="geometry" />
        </mxCell>
        <mxCell id="8qpjq_qJzxtZLCjxpEvZ-58" style="edgeStyle=orthogonalEdgeStyle;rounded=0;orthogonalLoop=1;jettySize=auto;html=1;fillColor=#f8cecc;strokeColor=#b85450;" edge="1" parent="1" source="8qpjq_qJzxtZLCjxpEvZ-55" target="8qpjq_qJzxtZLCjxpEvZ-57">
          <mxGeometry relative="1" as="geometry" />
        </mxCell>
        <mxCell id="8qpjq_qJzxtZLCjxpEvZ-55" value="manage" style="shape=rhombus;perimeter=rhombusPerimeter;whiteSpace=wrap;html=1;align=center;fillColor=#f8cecc;strokeColor=#b85450;" vertex="1" parent="1">
          <mxGeometry x="55" y="660" width="120" height="60" as="geometry" />
        </mxCell>
        <mxCell id="8qpjq_qJzxtZLCjxpEvZ-57" value="Admin" style="rounded=1;arcSize=10;whiteSpace=wrap;html=1;align=center;fillColor=#dae8fc;strokeColor=#6c8ebf;" vertex="1" parent="1">
          <mxGeometry x="70" y="880" width="90" height="50" as="geometry" />
        </mxCell>
        <mxCell id="8qpjq_qJzxtZLCjxpEvZ-60" value="name" style="ellipse;whiteSpace=wrap;html=1;fillColor=#f8cecc;strokeColor=#b85450;" vertex="1" parent="1">
          <mxGeometry x="230" y="810" width="70" height="30" as="geometry" />
        </mxCell>
        <mxCell id="8qpjq_qJzxtZLCjxpEvZ-61" value="productId" style="ellipse;whiteSpace=wrap;html=1;fillColor=#f8cecc;strokeColor=#b85450;" vertex="1" parent="1">
          <mxGeometry x="740" y="860" width="70" height="30" as="geometry" />
        </mxCell>
        <mxCell id="8qpjq_qJzxtZLCjxpEvZ-62" value="quntity" style="ellipse;whiteSpace=wrap;html=1;fillColor=#f8cecc;strokeColor=#b85450;" vertex="1" parent="1">
          <mxGeometry x="750" y="740" width="70" height="30" as="geometry" />
        </mxCell>
        <mxCell id="8qpjq_qJzxtZLCjxpEvZ-63" value="categoryId" style="ellipse;whiteSpace=wrap;html=1;fillColor=#f8cecc;strokeColor=#b85450;" vertex="1" parent="1">
          <mxGeometry x="710" y="350" width="70" height="30" as="geometry" />
        </mxCell>
        <mxCell id="8qpjq_qJzxtZLCjxpEvZ-64" value="quntity" style="ellipse;whiteSpace=wrap;html=1;fillColor=#f8cecc;strokeColor=#b85450;" vertex="1" parent="1">
          <mxGeometry x="425" y="420" width="70" height="30" as="geometry" />
        </mxCell>
        <mxCell id="8qpjq_qJzxtZLCjxpEvZ-65" value="price" style="ellipse;whiteSpace=wrap;html=1;fillColor=#f8cecc;strokeColor=#b85450;" vertex="1" parent="1">
          <mxGeometry x="740" y="530" width="70" height="30" as="geometry" />
        </mxCell>
        <mxCell id="8qpjq_qJzxtZLCjxpEvZ-66" value="productId" style="ellipse;whiteSpace=wrap;html=1;align=center;fontStyle=4;fillColor=#f8cecc;strokeColor=#b85450;" vertex="1" parent="1">
          <mxGeometry x="370" y="345" width="80" height="30" as="geometry" />
        </mxCell>
        <mxCell id="8qpjq_qJzxtZLCjxpEvZ-67" value="" style="endArrow=none;html=1;rounded=0;entryX=0.25;entryY=0;entryDx=0;entryDy=0;exitX=0.7;exitY=1.033;exitDx=0;exitDy=0;exitPerimeter=0;fillColor=#f8cecc;strokeColor=#b85450;" edge="1" parent="1" source="8qpjq_qJzxtZLCjxpEvZ-64" target="8qpjq_qJzxtZLCjxpEvZ-42">
          <mxGeometry relative="1" as="geometry">
            <mxPoint x="340" y="440" as="sourcePoint" />
            <mxPoint x="500" y="440" as="targetPoint" />
          </mxGeometry>
        </mxCell>
        <mxCell id="8qpjq_qJzxtZLCjxpEvZ-68" value="" style="endArrow=none;html=1;rounded=0;exitX=1;exitY=0.5;exitDx=0;exitDy=0;fillColor=#f8cecc;strokeColor=#b85450;" edge="1" parent="1" source="8qpjq_qJzxtZLCjxpEvZ-66" target="8qpjq_qJzxtZLCjxpEvZ-42">
          <mxGeometry relative="1" as="geometry">
            <mxPoint x="470" y="370" as="sourcePoint" />
            <mxPoint x="574" y="429" as="targetPoint" />
          </mxGeometry>
        </mxCell>
        <mxCell id="8qpjq_qJzxtZLCjxpEvZ-69" value="" style="endArrow=none;html=1;rounded=0;fillColor=#f8cecc;strokeColor=#b85450;" edge="1" parent="1">
          <mxGeometry relative="1" as="geometry">
            <mxPoint x="720" y="450" as="sourcePoint" />
            <mxPoint x="650" y="520" as="targetPoint" />
          </mxGeometry>
        </mxCell>
        <mxCell id="8qpjq_qJzxtZLCjxpEvZ-70" value="" style="endArrow=none;html=1;rounded=0;entryX=0.28;entryY=1.02;entryDx=0;entryDy=0;exitX=1;exitY=0.75;exitDx=0;exitDy=0;entryPerimeter=0;fillColor=#f8cecc;strokeColor=#b85450;" edge="1" parent="1" source="8qpjq_qJzxtZLCjxpEvZ-42" target="8qpjq_qJzxtZLCjxpEvZ-65">
          <mxGeometry relative="1" as="geometry">
            <mxPoint x="670" y="580" as="sourcePoint" />
            <mxPoint x="774" y="639" as="targetPoint" />
          </mxGeometry>
        </mxCell>
        <mxCell id="8qpjq_qJzxtZLCjxpEvZ-71" value="" style="endArrow=none;html=1;rounded=0;entryX=0;entryY=1;entryDx=0;entryDy=0;exitX=0.896;exitY=0.02;exitDx=0;exitDy=0;exitPerimeter=0;fillColor=#f8cecc;strokeColor=#b85450;" edge="1" parent="1" source="8qpjq_qJzxtZLCjxpEvZ-42" target="8qpjq_qJzxtZLCjxpEvZ-63">
          <mxGeometry relative="1" as="geometry">
            <mxPoint x="650" y="460" as="sourcePoint" />
            <mxPoint x="754" y="519" as="targetPoint" />
          </mxGeometry>
        </mxCell>
        <mxCell id="8qpjq_qJzxtZLCjxpEvZ-72" value="stockId" style="ellipse;whiteSpace=wrap;html=1;align=center;fontStyle=4;fillColor=#f8cecc;strokeColor=#b85450;" vertex="1" parent="1">
          <mxGeometry x="415" y="760" width="80" height="30" as="geometry" />
        </mxCell>
        <mxCell id="8qpjq_qJzxtZLCjxpEvZ-73" value="" style="endArrow=none;html=1;rounded=0;entryX=0.398;entryY=0.044;entryDx=0;entryDy=0;entryPerimeter=0;fillColor=#f8cecc;strokeColor=#b85450;" edge="1" parent="1" target="8qpjq_qJzxtZLCjxpEvZ-48">
          <mxGeometry relative="1" as="geometry">
            <mxPoint x="480" y="800" as="sourcePoint" />
            <mxPoint x="500" y="640" as="targetPoint" />
          </mxGeometry>
        </mxCell>
        <mxCell id="8qpjq_qJzxtZLCjxpEvZ-75" value="" style="endArrow=none;html=1;rounded=0;entryX=0.931;entryY=0.092;entryDx=0;entryDy=0;entryPerimeter=0;exitX=0;exitY=0.5;exitDx=0;exitDy=0;fillColor=#f8cecc;strokeColor=#b85450;" edge="1" parent="1" source="8qpjq_qJzxtZLCjxpEvZ-61" target="8qpjq_qJzxtZLCjxpEvZ-48">
          <mxGeometry relative="1" as="geometry">
            <mxPoint x="340" y="640" as="sourcePoint" />
            <mxPoint x="500" y="640" as="targetPoint" />
          </mxGeometry>
        </mxCell>
        <mxCell id="8qpjq_qJzxtZLCjxpEvZ-76" value="" style="endArrow=none;html=1;rounded=0;entryX=0.887;entryY=0.044;entryDx=0;entryDy=0;entryPerimeter=0;exitX=0;exitY=0.5;exitDx=0;exitDy=0;fillColor=#f8cecc;strokeColor=#b85450;" edge="1" parent="1" source="8qpjq_qJzxtZLCjxpEvZ-62" target="8qpjq_qJzxtZLCjxpEvZ-48">
          <mxGeometry relative="1" as="geometry">
            <mxPoint x="340" y="640" as="sourcePoint" />
            <mxPoint x="500" y="640" as="targetPoint" />
          </mxGeometry>
        </mxCell>
        <mxCell id="8qpjq_qJzxtZLCjxpEvZ-78" value="adminId" style="ellipse;whiteSpace=wrap;html=1;align=center;fontStyle=4;fillColor=#f8cecc;strokeColor=#b85450;" vertex="1" parent="1">
          <mxGeometry x="170" y="980" width="80" height="30" as="geometry" />
        </mxCell>
        <mxCell id="8qpjq_qJzxtZLCjxpEvZ-79" value="" style="endArrow=none;html=1;rounded=0;exitX=0.75;exitY=0;exitDx=0;exitDy=0;entryX=0.5;entryY=1;entryDx=0;entryDy=0;fillColor=#f8cecc;strokeColor=#b85450;" edge="1" parent="1" source="8qpjq_qJzxtZLCjxpEvZ-57" target="8qpjq_qJzxtZLCjxpEvZ-27">
          <mxGeometry relative="1" as="geometry">
            <mxPoint x="340" y="740" as="sourcePoint" />
            <mxPoint x="500" y="740" as="targetPoint" />
          </mxGeometry>
        </mxCell>
        <mxCell id="8qpjq_qJzxtZLCjxpEvZ-80" value="" style="endArrow=none;html=1;rounded=0;exitX=1;exitY=0;exitDx=0;exitDy=0;entryX=0.5;entryY=1;entryDx=0;entryDy=0;fillColor=#f8cecc;strokeColor=#b85450;" edge="1" parent="1" source="8qpjq_qJzxtZLCjxpEvZ-57" target="8qpjq_qJzxtZLCjxpEvZ-60">
          <mxGeometry relative="1" as="geometry">
            <mxPoint x="340" y="740" as="sourcePoint" />
            <mxPoint x="500" y="740" as="targetPoint" />
          </mxGeometry>
        </mxCell>
        <mxCell id="8qpjq_qJzxtZLCjxpEvZ-81" value="" style="endArrow=none;html=1;rounded=0;exitX=0.5;exitY=1;exitDx=0;exitDy=0;entryX=1;entryY=0;entryDx=0;entryDy=0;fillColor=#f8cecc;strokeColor=#b85450;" edge="1" parent="1" source="8qpjq_qJzxtZLCjxpEvZ-57" target="8qpjq_qJzxtZLCjxpEvZ-78">
          <mxGeometry relative="1" as="geometry">
            <mxPoint x="340" y="740" as="sourcePoint" />
            <mxPoint x="500" y="740" as="targetPoint" />
          </mxGeometry>
        </mxCell>
        <mxCell id="8qpjq_qJzxtZLCjxpEvZ-82" value="categoryId" style="ellipse;whiteSpace=wrap;html=1;align=center;fontStyle=4;fillColor=#f8cecc;strokeColor=#b85450;" vertex="1" parent="1">
          <mxGeometry x="20" y="440" width="80" height="30" as="geometry" />
        </mxCell>
        <mxCell id="8qpjq_qJzxtZLCjxpEvZ-83" value="name" style="ellipse;whiteSpace=wrap;html=1;fillColor=#f8cecc;strokeColor=#b85450;" vertex="1" parent="1">
          <mxGeometry x="180" y="450" width="70" height="30" as="geometry" />
        </mxCell>
        <mxCell id="8qpjq_qJzxtZLCjxpEvZ-84" value="" style="endArrow=none;html=1;rounded=0;exitX=0.5;exitY=1;exitDx=0;exitDy=0;entryX=0.378;entryY=0.036;entryDx=0;entryDy=0;entryPerimeter=0;fillColor=#f8cecc;strokeColor=#b85450;" edge="1" parent="1" source="8qpjq_qJzxtZLCjxpEvZ-82" target="8qpjq_qJzxtZLCjxpEvZ-45">
          <mxGeometry relative="1" as="geometry">
            <mxPoint x="340" y="740" as="sourcePoint" />
            <mxPoint x="500" y="740" as="targetPoint" />
          </mxGeometry>
        </mxCell>
        <mxCell id="8qpjq_qJzxtZLCjxpEvZ-85" value="" style="endArrow=none;html=1;rounded=0;exitX=0.269;exitY=1.02;exitDx=0;exitDy=0;exitPerimeter=0;entryX=1;entryY=0;entryDx=0;entryDy=0;fillColor=#f8cecc;strokeColor=#b85450;" edge="1" parent="1" source="8qpjq_qJzxtZLCjxpEvZ-83" target="8qpjq_qJzxtZLCjxpEvZ-45">
          <mxGeometry relative="1" as="geometry">
            <mxPoint x="340" y="740" as="sourcePoint" />
            <mxPoint x="500" y="740" as="targetPoint" />
          </mxGeometry>
        </mxCell>
      </root>
    </mxGraphModel>
  </diagram>
</mxfile>
